# xmcd
#
# Track frame offsets:
#	150
#	18427
#	43980
#	63427
#	80474
#	102360
#	131476
#	148268
#	182290
#
# Disc length: 2687 seconds
# Revision: 0
# Processed by: cddbd v1.5.2PL0 Copyright (c) Steve Scherf et al.
# Submitted via: dBpowerAMP V12.0
#
DISCID=790a7d09
DTITLE=Joel Johnson - Blues Joose Vol. 1
DYEAR=2010
DGENRE=Blues
TTITLE0=Feeling Mighty Fine
TTITLE1=Funky Song
TTITLE2=Gone and Back
TTITLE3=Bad Luck with Lady Luck
TTITLE4=Make it Right
TTITLE5=I'll See You Soon
TTITLE6=Madness
TTITLE7=You Know I Love You
TTITLE8=Catch That Train
EXTD=
EXTT0=
EXTT1=
EXTT2=
EXTT3=
EXTT4=
EXTT5=
EXTT6=
EXTT7=
EXTT8=
PLAYORDER=
